<svg xmlns="http://www.w3.org/2000/svg" width="180" height="180" style="enable-background:new 0 0 180 180" xml:space="preserve"><path d="M49.6 39.4h.9v37.2h-.9V39.4zm29.7 28.1h15.5v.9H79.3v-.9z"/><path d="M76.3 71.4c-1.9 0-3.5-1.6-3.5-3.5s1.6-3.5 3.5-3.5 3.5 1.6 3.5 3.5c0 2-1.6 3.5-3.5 3.5zm0-6c-1.4 0-2.6 1.2-2.6 2.6 0 1.4 1.2 2.6 2.6 2.6 1.4 0 2.6-1.2 2.6-2.6 0-1.4-1.2-2.6-2.6-2.6z"/><path d="M136.3 157.9H37.8c-3.5 0-6.4-2.4-7-5.7s1.4-6.5 4.5-7.6l15.4-62.2c.6-2.2-.7-4.5-2.9-5.1l-7.1-2c-3.9-.8-4.4-3.2-4.4-4.6v-1.2c-2.5-3.5-3.9-7.5-3.9-11.7 0-10.9 8.9-19.8 19.8-19.8h61.1c7.9 0 15.1 4.7 18.2 12h4.3c2.3 0 4.2 1.9 4.2 4.2v5.4c0 2.3-1.9 4.2-4.2 4.2h-3.5V76c0 2.3-1.9 4.2-4.2 4.2h-1c0 2.4-2 4.3-4.3 4.3h-5.1v1.7h30.5v21.1c0 13.2-7.5 25.3-19.3 31.2v5.8h7.7c2 0 3.9.9 5.2 2.4 1.3 1.5 1.9 3.5 1.7 5.4-.6 3.2-3.6 5.8-7.2 5.8zM52.2 40.5c-9.5 0-17.2 7.7-17.2 17.2 0 3.9 1.3 7.5 3.6 10.5l.2.3v2.1c0 .5 0 1.7 2.4 2.1h.1l7.1 2c3.5 1 5.7 4.6 4.7 8.2l-15.7 63.7-.8.2c-2.2.5-3.7 2.7-3.3 5 .3 2 2.3 3.5 4.4 3.5h98.5c2.3 0 4.2-1.7 4.5-3.8.2-1.3-.2-2.4-1-3.4-.8-.9-2-1.4-3.2-1.4h-10.3v-10l.7-.3c11.3-5.3 18.6-16.8 18.6-29.3V88.6H115v-6.9h7.7c.9 0 1.8-.8 1.8-1.8v-2.5h3.5c.9 0 1.6-.7 1.6-1.6V61.1h6.1c.9 0 1.6-.7 1.6-1.6v-5.4c0-.9-.7-1.6-1.6-1.6h-6.1l-.3-.9c-2.5-6.7-9-11.2-16.1-11.2h-61zm48.2 106.2H98l-.2-.1c-15.4-6.8-26.6-25.2-26.6-43.8v-1.7c0-7.7 0-15.6 3.8-21.9 1.8-3.2 5.3-5.2 9-5.2h13.8v1.8c0 .9.7 1.6 1.6 1.6h2.7v2.5c0 .9.8 1.8 1.8 1.8h7.7v6.8H81V107c0 12.5 7.3 23.9 18.6 29.3l.7.3.1 10.1zM84 76.6c-2.8 0-5.4 1.5-6.9 3.9-3.5 5.7-3.4 13.3-3.4 20.6v1.7c0 17 10.3 34.4 24.1 41v-5.5c-11.8-5.9-19.3-18-19.3-31.2v-21H109v-1.7h-5.1c-2.4 0-4.3-1.9-4.3-4.3h-.1c-2 0-3.8-1.5-4.1-3.5H84z"/><path d="M97 77.4h32.7v.9H97v-.9zm-23.5 7.2c-2.9-3.5-6.8-5.4-10.9-5.4-3.9 0-7.7 1.7-10.5 5l-.6-.6c3.1-3.4 7-5.3 11.2-5.3 4.4 0 8.5 2 11.6 5.7-.2-.1-.8.6-.8.6zM97 86.1h30.5v2.6H97v-2.6z"/></svg>